<?xml version="1.0" standalone="no"?>
<!DOCTYPE svg PUBLIC "-//W3C//DTD SVG 20010904//EN"
 "http://www.w3.org/TR/2001/REC-SVG-20010904/DTD/svg10.dtd">
<svg version="1.0" xmlns="http://www.w3.org/2000/svg"
 width="310.000000pt" height="310.000000pt" viewBox="0 0 310.000000 310.000000"
 preserveAspectRatio="xMidYMid meet">
<metadata>
Created by potrace 1.11, written by Peter Selinger 2001-2013
</metadata>
<g transform="translate(0.000000,310.000000) scale(0.100000,-0.100000)"
fill="#000000" stroke="none">
<path d="M821 2436 c-12 -15 -21 -61 -46 -256 -10 -69 -20 -128 -23 -132 -4
-4 -45 -12 -92 -18 -46 -6 -88 -14 -92 -16 -4 -3 -8 -23 -8 -45 0 -62 24 -79
114 -79 l75 0 3 -412 c3 -395 4 -415 24 -458 46 -98 115 -146 227 -157 78 -7
159 10 236 48 88 44 90 49 47 114 -20 30 -42 55 -50 55 -8 0 -34 -11 -57 -25
-79 -45 -170 -28 -206 38 -16 29 -18 68 -18 412 l0 380 168 3 167 2 0 75 0 75
-167 2 -168 3 -3 203 -2 202 -59 0 c-38 0 -63 -5 -70 -14z"/>
<path d="M1872 2064 c-96 -25 -164 -65 -233 -133 -120 -120 -178 -289 -166
-486 18 -297 153 -486 401 -563 79 -24 251 -21 351 7 141 39 278 130 256 169
-22 39 -57 73 -76 74 -11 1 -63 -20 -115 -45 -153 -76 -279 -85 -404 -28 -121
55 -199 187 -208 351 l-3 55 403 5 c477 6 438 -6 428 133 -18 242 -135 399
-345 461 -68 20 -216 20 -289 0z m293 -161 c50 -26 96 -75 124 -130 20 -40 43
-151 34 -165 -2 -5 -148 -8 -324 -8 -257 0 -319 3 -319 13 0 26 32 123 53 157
42 72 109 128 178 149 58 18 208 8 254 -16z"/>
</g>
</svg>
