<?xml version="1.0" encoding="utf-8"?>
<!-- Generator: Adobe Illustrator 19.1.0, SVG Export Plug-In . SVG Version: 6.00 Build 0)  -->
<svg version="1.1" id="Layer_1" xmlns="http://www.w3.org/2000/svg" xmlns:xlink="http://www.w3.org/1999/xlink" x="0px" y="0px"
	 viewBox="-117 38 405 405" style="enable-background:new -117 38 405 405;" xml:space="preserve">
<style type="text/css">
	.st0{fill-rule:evenodd;clip-rule:evenodd;fill:#181616;}
</style>
<path class="st0" d="M87,110.3c-72.3,0-130.9,58.6-130.9,131c0,57.9,37.5,106.9,89.6,124.2c6.5,1.2,8.9-2.8,8.9-6.3
	c0-3.1-0.1-11.3-0.2-22.3c-36.4,7.9-44.1-17.6-44.1-17.6c-6-15.1-14.5-19.2-14.5-19.2c-11.9-8.1,0.9-8,0.9-8
	c13.1,0.9,20.1,13.5,20.1,13.5c11.7,20,30.6,14.2,38.1,10.9c1.2-8.5,4.6-14.2,8.3-17.5c-29.1-3.3-59.6-14.5-59.6-64.7
	c0-14.3,5.1-26,13.5-35.1c-1.3-3.3-5.8-16.6,1.3-34.7c0,0,11-3.5,36,13.4c10.4-2.9,21.6-4.4,32.8-4.4c11.1,0.1,22.3,1.5,32.8,4.4
	c25-16.9,36-13.4,36-13.4c7.1,18,2.6,31.3,1.3,34.7c8.4,9.2,13.5,20.8,13.5,35.1c0,50.3-30.6,61.4-59.8,64.6c4.7,4,8.9,12,8.9,24.3
	c0,17.5-0.2,31.6-0.2,35.9c0,3.5,2.4,7.6,9,6.3c52-17.4,89.5-66.4,89.5-124.2C218,169,159.4,110.3,87,110.3z"/>
</svg>
